<svg id="Bev_1" enable-background="new 0 0 512.003 512.003" height="512" viewBox="0 0 512.003 512.003" width="512" xmlns="http://www.w3.org/2000/svg"><path d="m512 279.5c0-12.407-10.094-22.5-22.5-22.5h-9.468v-69.811c0-33.411-19.463-50.804-24.942-60.491-7.635-10.843-11.67-23.599-11.67-36.891v-6.171c0-4.142-3.357-7.5-7.5-7.5s-7.5 3.358-7.5 7.5v6.171c0 16.399 4.981 32.143 14.405 45.526 5.821 10.109 22.207 24.091 22.207 51.855v3.591h-113v-3.431c0-27.996 16.737-42.252 22.339-51.913 9.546-13.439 14.591-29.272 14.591-45.789v-44.646h39.458v6.823c0 4.142 3.357 7.5 7.5 7.5s7.5-3.358 7.5-7.5v-9.123c2.793-2.095 4.612-5.422 4.612-9.175v-22.025c0-6.341-5.159-11.5-11.5-11.5h-56c-6.341 0-11.5 5.159-11.5 11.5v22.025c0 3.895 1.954 7.337 4.93 9.412v46.71c0 13.386-4.087 26.216-11.819 37.103-5.405 9.488-25.11 26.986-25.11 60.599v69.651h-9.533v-69.811c0-33.41-19.463-50.804-24.942-60.491-7.635-10.843-11.67-23.599-11.67-36.891v-47.107c2.794-2.095 4.612-5.422 4.612-9.175v-22.025c0-6.341-5.159-11.5-11.5-11.5h-56c-6.341 0-11.5 5.159-11.5 11.5v22.025c0 3.895 1.955 7.338 4.931 9.413v46.709c0 13.385-4.088 26.215-11.82 37.103-5.405 9.488-25.11 26.986-25.11 60.599v69.651h-9.532v-69.811c0-33.41-19.463-50.804-24.942-60.491-7.635-10.843-11.67-23.599-11.67-36.891v-47.107c2.794-2.095 4.612-5.422 4.612-9.175v-22.025c0-6.341-5.159-11.5-11.5-11.5h-56c-6.341 0-11.5 5.159-11.5 11.5v22.025c0 3.895 1.955 7.338 4.931 9.413v46.709c0 13.385-4.088 26.215-11.82 37.103-5.405 9.488-25.11 26.986-25.11 60.599v69.651h-9.47c-12.406 0-22.5 10.093-22.5 22.5 0 9.963 6.511 18.429 15.5 21.379v18.989c0 4.142 3.357 7.5 7.5 7.5s7.5-3.358 7.5-7.5v-17.868h76.523v112.5c0 15.164 12.337 27.5 27.5 27.5s27.5-12.336 27.5-27.5v-112.5h25.984v112.5c0 15.164 12.337 27.5 27.5 27.5s27.5-12.336 27.5-27.5v-112.5h25.984v112.5c0 15.164 12.337 27.5 27.5 27.5s27.5-12.336 27.5-27.5v-112.5h25.984v112.5c0 15.164 12.337 27.5 27.5 27.5s27.5-12.336 27.5-27.5v-112.5h76.525v178.5c0 9.098-7.401 16.5-16.5 16.5h-16.855c-4.143 0-7.5 3.358-7.5 7.5s3.357 7.5 7.5 7.5h16.855c17.369 0 31.5-14.131 31.5-31.5v-179.621c8.989-2.95 15.5-11.416 15.5-21.379zm-127.968-264.5h49v15h-49zm-32 190.78h113v51.22h-113zm-120.532-190.78h49v15h-49zm-9.661 120.436c9.546-13.44 14.592-29.273 14.592-45.789v-44.647h39.457v44.808c0 16.399 4.981 32.143 14.406 45.526 5.819 10.105 22.206 24.092 22.206 51.855v3.591h-113v-3.431c0-27.995 16.737-42.252 22.339-51.913zm-22.339 70.344h113v51.22h-113zm-120.532-190.78h49v15h-49zm-9.661 120.436c9.546-13.44 14.592-29.273 14.592-45.789v-44.647h39.457v44.808c0 16.399 4.981 32.143 14.406 45.526 5.819 10.105 22.206 24.092 22.206 51.855v3.591h-113v-3.431c0-27.995 16.737-42.252 22.339-51.913zm-22.339 70.344h113v51.22h-113zm100.055 208.72c0 6.893-5.607 12.5-12.5 12.5s-12.5-5.607-12.5-12.5v-112.5h25zm80.985 0c0 6.893-5.607 12.5-12.5 12.5s-12.5-5.607-12.5-12.5v-112.5h25zm80.984 0c0 6.893-5.607 12.5-12.5 12.5s-12.5-5.607-12.5-12.5v-112.5h25zm80.985 0c0 6.893-5.607 12.5-12.5 12.5s-12.5-5.607-12.5-12.5v-112.5h25zm99.523-127.5h-467c-4.136 0-7.5-3.364-7.5-7.5s3.364-7.5 7.5-7.5h467c4.136 0 7.5 3.364 7.5 7.5s-3.364 7.5-7.5 7.5z"/><path d="m415.772 497h-368.772c-9.099 0-16.5-7.402-16.5-16.5v-128.259c0-4.142-3.357-7.5-7.5-7.5s-7.5 3.358-7.5 7.5v128.259c0 17.369 14.131 31.5 31.5 31.5h368.772c4.143 0 7.5-3.358 7.5-7.5s-3.357-7.5-7.5-7.5z"/></svg>