<svg id="Bev_1" enable-background="new 0 0 512.003 512.003" height="512" viewBox="0 0 512.003 512.003" width="512" xmlns="http://www.w3.org/2000/svg"><g><path d="m203.9 144.6 9.4-3.4-33.8-94.6-78.6-21.3-2.6 9.6 73.6 20z"/><path d="m408 212.8c-2.7-3.2-6.2-5.6-10.1-7-1.9-27.9-25.1-50-53.5-50h-103.7l-45.1-126.5-89.2-24.2-2.6 9.7 84.1 22.8 42.2 118.3h-36.1c-28.3 0-51.6 22.1-53.5 50-3.9 1.4-7.4 3.8-10.1 7-4.6 5.4-6.5 12.4-5.4 19.3 1.8 11 10.7 19.1 21.6 20l48.7 254.8h68.9v-10h-60.7l-20.4-106.8h42.1c9.5 14.2 25.6 23.5 43.9 23.5s34.4-9.3 43.9-23.5h42.1l-20.4 106.8h-60.7v10h68.9l48.7-254.8c10.9-.9 19.8-9 21.6-20 1.3-7-.6-14-5.2-19.4zm-187.9 167.3h-38.8l-7.4-38.6h46.2c-2.4 6-3.7 12.5-3.7 19.3s1.3 13.4 3.7 19.3zm49.1 23.6c-23.6 0-42.8-19.2-42.8-42.8s19.2-42.8 42.8-42.8 42.8 19.2 42.8 42.8-19.2 42.8-42.8 42.8zm88-23.6h-38.8c2.4-6 3.7-12.5 3.7-19.3s-1.3-13.3-3.7-19.3h46.2zm46.3-149.5c-1.1 6.8-6.9 11.7-13.7 11.7h-105.6v10h97.4l-15.1 79.3h-53.3c-9.5-14.2-25.6-23.5-43.9-23.5s-34.4 9.3-43.9 23.5h-53.4l-15.1-79.3h97.3v-10h-105.5c-6.9 0-12.6-4.9-13.7-11.7-.7-4 .5-8.1 3.1-11.3 2.7-3.1 6.5-4.9 10.6-4.9h115.6v-10h-113.6c2.5-21.7 20.9-38.6 43.3-38.6h150.4c22.3 0 40.8 16.9 43.3 38.6h-113.5v10h115.6c4.1 0 8 1.8 10.6 4.9s3.8 7.2 3.1 11.3z"/><path d="m264.2 242.3h10v10h-10z"/></g></svg>