<svg id="Capa_1" enable-background="new 0 0 512 512" height="512" viewBox="0 0 512 512" width="512" xmlns="http://www.w3.org/2000/svg"><path d="m489.5 188.5h-8.647l-9.777-58.665c-3.026-18.157-18.583-31.335-36.99-31.335h-356.172c-18.407 0-33.963 13.178-36.99 31.335l-9.777 58.665h-8.647c-12.407 0-22.5 10.093-22.5 22.5v15c0 4.142 3.358 7.5 7.5 7.5h8.647l24.777 148.665c3.026 18.157 18.583 31.335 36.99 31.335h356.173c18.407 0 33.963-13.178 36.99-31.335l24.776-148.665h8.647c4.142 0 7.5-3.358 7.5-7.5v-15c0-12.407-10.093-22.5-22.5-22.5zm-433.78-56.199c1.816-10.894 11.15-18.801 22.194-18.801h356.173c11.044 0 20.378 7.907 22.194 18.801l9.366 56.199h-419.294zm441.28 86.199h-414.5c-4.142 0-7.5 3.358-7.5 7.5s3.358 7.5 7.5 7.5h398.147l-24.367 146.199c-1.816 10.894-11.15 18.801-22.194 18.801h-356.172c-11.044 0-20.378-7.907-22.194-18.801l-24.367-146.199h21.147c4.142 0 7.5-3.358 7.5-7.5s-3.358-7.5-7.5-7.5h-37.5v-7.5c0-4.136 3.364-7.5 7.5-7.5h467c4.136 0 7.5 3.364 7.5 7.5z"/><path d="m376 383.5c12.407 0 22.5-10.093 22.5-22.5v-105c0-4.142-3.358-7.5-7.5-7.5s-7.5 3.358-7.5 7.5v105c0 4.136-3.364 7.5-7.5 7.5s-7.5-3.364-7.5-7.5v-105c0-4.142-3.358-7.5-7.5-7.5s-7.5 3.358-7.5 7.5v105c0 12.407 10.093 22.5 22.5 22.5z"/><path d="m316 383.5c12.407 0 22.5-10.093 22.5-22.5v-105c0-4.142-3.358-7.5-7.5-7.5s-7.5 3.358-7.5 7.5v105c0 4.136-3.364 7.5-7.5 7.5s-7.5-3.364-7.5-7.5v-105c0-4.142-3.358-7.5-7.5-7.5s-7.5 3.358-7.5 7.5v105c0 12.407 10.093 22.5 22.5 22.5z"/><path d="m256 383.5c12.407 0 22.5-10.093 22.5-22.5v-105c0-4.142-3.358-7.5-7.5-7.5s-7.5 3.358-7.5 7.5v105c0 4.136-3.364 7.5-7.5 7.5s-7.5-3.364-7.5-7.5v-105c0-4.142-3.358-7.5-7.5-7.5s-7.5 3.358-7.5 7.5v105c0 12.407 10.093 22.5 22.5 22.5z"/><path d="m196 383.5c12.407 0 22.5-10.093 22.5-22.5v-105c0-4.142-3.358-7.5-7.5-7.5s-7.5 3.358-7.5 7.5v105c0 4.136-3.364 7.5-7.5 7.5s-7.5-3.364-7.5-7.5v-105c0-4.142-3.358-7.5-7.5-7.5s-7.5 3.358-7.5 7.5v105c0 12.407 10.093 22.5 22.5 22.5z"/><path d="m136 383.5c12.407 0 22.5-10.093 22.5-22.5v-105c0-4.142-3.358-7.5-7.5-7.5s-7.5 3.358-7.5 7.5v105c0 4.136-3.364 7.5-7.5 7.5s-7.5-3.364-7.5-7.5v-105c0-4.142-3.358-7.5-7.5-7.5s-7.5 3.358-7.5 7.5v105c0 12.407 10.093 22.5 22.5 22.5z"/></svg>