<svg id="Capa_1" enable-background="new 0 0 512.003 512.003" height="512" viewBox="0 0 512.003 512.003" width="512" xmlns="http://www.w3.org/2000/svg"><g><path d="m397.439 240.254 35.383-78.602h8.761c8.158 0 14.795-6.638 14.795-14.796v-30.205c0-8.158-6.637-14.795-14.795-14.795h-8.761l-35.383-78.602c-6.357-14.124-20.474-23.25-35.962-23.25h-210.892c-14.462-.267-29.923 9.28-36.021 23.25l-35.383 78.602h-8.761c-8.158 0-14.795 6.637-14.795 14.795v30.205c0 8.158 6.637 14.796 14.795 14.796h8.761l35.383 78.602c2.888 6.415 7.387 11.784 12.877 15.75-5.49 3.966-9.99 9.334-12.877 15.748l-35.384 78.603h-8.76c-8.158 0-14.795 6.638-14.795 14.796v30.205c0 8.158 6.637 14.796 14.795 14.796h139l4.007 14.534c2.78 10.085 12.028 17.128 22.49 17.128h40.17c10.461 0 19.709-7.043 22.49-17.128l4.007-14.534h113.79l-32.611 72.444c-3.94 8.751-12.687 14.406-22.284 14.406h-210.954c-9.598 0-18.344-5.655-22.284-14.406l-21.805-48.438c-1.7-3.777-6.14-5.463-9.917-3.761-3.777 1.7-5.46 6.141-3.76 9.917l21.805 48.438c6.357 14.124 20.474 23.25 35.962 23.25h210.952c15.488 0 29.604-9.126 35.962-23.249l35.383-78.602h8.761c8.158 0 14.795-6.638 14.795-14.796v-30.205c0-8.158-6.637-14.796-14.795-14.796h-8.761l-12.336-27.402c-1.7-3.777-6.141-5.462-9.917-3.761-3.777 1.7-5.46 6.141-3.76 9.917l9.563 21.246h-320.743l32.611-72.445c3.939-8.751 12.687-14.405 22.284-14.405h210.952c9.598 0 18.345 5.654 22.284 14.405l7.182 15.955c1.7 3.777 6.14 5.462 9.917 3.761 3.777-1.7 5.461-6.141 3.76-9.917l-7.182-15.955c-2.888-6.415-7.387-11.783-12.878-15.749 5.492-3.966 9.992-9.334 12.879-15.75zm-113.324 180.446c-.992 3.6-4.294 6.114-8.029 6.114h-40.17c-3.735 0-7.037-2.515-8.029-6.114l-2.908-10.548h62.044zm157.263-55.345v29.797h-370.754v-29.797zm-313.137-335.943c3.939-8.751 12.687-14.406 22.284-14.406h210.952c9.598 0 18.345 5.655 22.284 14.406l32.611 72.445h-320.742zm22.363 219.092c-.026 0-.052-.004-.078-.004h-.107c-9.556-.042-18.253-5.684-22.178-14.402l-32.611-72.445h113.79l4.007 14.534c2.78 10.085 12.028 17.129 22.49 17.129h40.17c10.461 0 19.709-7.044 22.49-17.129l4.007-14.534h20.832c4.142 0 7.5-3.357 7.5-7.5s-3.358-7.5-7.5-7.5h-252.792v-29.796h370.754v29.796h-81.549c-4.142 0-7.5 3.357-7.5 7.5s3.358 7.5 7.5 7.5h56.543l-32.611 72.445c-3.939 8.751-12.687 14.406-22.284 14.406zm74.375-86.851h62.044l-2.908 10.548c-.992 3.601-4.294 6.115-8.029 6.115h-40.17c-3.735 0-7.037-2.515-8.029-6.115z"/><path d="m161.754 291.015-11.401 28.203c-1.553 3.84.302 8.212 4.142 9.764.921.373 1.873.549 2.809.549 2.966 0 5.776-1.772 6.956-4.691l11.4-28.203c1.553-3.84-.302-8.212-4.142-9.764-3.841-1.555-8.213.302-9.764 4.142z"/><path d="m205.003 292.339-5.701 28.203c-.82 4.061 1.806 8.017 5.866 8.838.501.102 1.001.149 1.494.149 3.496 0 6.624-2.457 7.344-6.015l5.701-28.203c.82-4.061-1.806-8.017-5.866-8.838-4.06-.822-8.017 1.808-8.838 5.866z"/><path d="m248.501 293.826v28.203c0 4.143 3.358 7.5 7.5 7.5s7.5-3.357 7.5-7.5v-28.203c0-4.143-3.358-7.5-7.5-7.5s-7.5 3.357-7.5 7.5z"/><path d="m298.162 286.474c-4.06.821-6.686 4.777-5.866 8.838l5.701 28.203c.72 3.559 3.848 6.015 7.344 6.015.492 0 .992-.048 1.494-.149 4.06-.821 6.686-4.777 5.866-8.838l-5.701-28.204c-.822-4.059-4.774-6.685-8.838-5.865z"/><path d="m340.485 286.873c-3.84 1.552-5.695 5.924-4.142 9.764l11.4 28.203c1.18 2.92 3.99 4.691 6.956 4.691.936 0 1.888-.177 2.809-.549 3.84-1.552 5.695-5.924 4.142-9.764l-11.401-28.203c-1.552-3.842-5.924-5.692-9.764-4.142z"/><path d="m171.518 39.844c-3.841-1.555-8.212.303-9.764 4.143l-11.401 28.203c-1.553 3.84.302 8.212 4.142 9.764.921.373 1.873.549 2.809.549 2.966 0 5.776-1.772 6.956-4.691l11.4-28.203c1.553-3.841-.302-8.213-4.142-9.765z"/><path d="m213.84 39.446c-4.06-.823-8.016 1.807-8.837 5.865l-5.701 28.203c-.82 4.061 1.806 8.017 5.866 8.838.501.102 1.001.149 1.494.149 3.496 0 6.624-2.457 7.344-6.015l5.701-28.203c.819-4.06-1.807-8.016-5.867-8.837z"/><path d="m256.001 39.297c-4.142 0-7.5 3.357-7.5 7.5v28.203c0 4.143 3.358 7.5 7.5 7.5s7.5-3.357 7.5-7.5v-28.203c0-4.142-3.358-7.5-7.5-7.5z"/><path d="m307 45.311c-.821-4.06-4.774-6.686-8.837-5.865-4.06.821-6.686 4.777-5.866 8.838l5.701 28.203c.72 3.559 3.848 6.015 7.344 6.015.492 0 .992-.048 1.494-.149 4.06-.821 6.686-4.777 5.866-8.838z"/><path d="m350.249 43.987c-1.552-3.841-5.924-5.692-9.764-4.143-3.84 1.552-5.695 5.924-4.142 9.764l11.4 28.203c1.18 2.92 3.99 4.691 6.956 4.691.936 0 1.888-.177 2.809-.549 3.84-1.552 5.695-5.924 4.142-9.764z"/></g></svg>