<?xml version="1.0" encoding="iso-8859-1"?>
<!-- Generator: Adobe Illustrator 19.0.0, SVG Export Plug-In . SVG Version: 6.00 Build 0)  -->
<svg version="1.1" id="Layer_1" xmlns="http://www.w3.org/2000/svg" xmlns:xlink="http://www.w3.org/1999/xlink" x="0px" y="0px"
	 viewBox="0 0 511.999 511.999" style="enable-background:new 0 0 511.999 511.999;" xml:space="preserve">
<g>
	<g>
		<path d="M511.609,401.895l-76.869-293.769c-0.703-2.685-2.794-4.788-5.476-5.506c-2.68-0.719-5.543,0.06-7.492,2.037
			l-84.478,85.628l-72.371-87.513c-1.456-1.762-3.619-2.787-5.905-2.802c-2.317-0.003-4.461,0.986-5.938,2.731L1.83,399.311
			c-1.944,2.295-2.38,5.511-1.114,8.239c1.266,2.729,3.999,4.476,7.007,4.476h496.505c0.008,0,0.016,0.002,0.024,0.002
			c0.019,0,0.036-0.003,0.055-0.003c0.298-0.002,0.589-0.023,0.877-0.057c0.046-0.006,0.093-0.015,0.139-0.022
			c0.287-0.038,0.569-0.094,0.845-0.164c0.014-0.003,0.029-0.004,0.043-0.008c0.015-0.004,0.03-0.01,0.045-0.014
			c0.237-0.064,0.468-0.137,0.695-0.22c0.007-0.003,0.015-0.006,0.023-0.008c2.933-1.096,5.024-3.914,5.024-7.229
			C511.999,403.46,511.858,402.653,511.609,401.895z M413.733,396.579L271.951,233.907c-2.804-3.215-7.682-3.549-10.896-0.749
			c-3.216,2.803-3.549,7.682-0.749,10.896l132.937,152.524H24.385l181.801-214.62l33.448,38.377c1.527,1.752,3.67,2.648,5.825,2.648
			c1.8,0,3.608-0.625,5.071-1.901c3.216-2.803,3.55-7.682,0.748-10.896l-34.993-40.149l42.618-50.311l228.946,276.852H413.733z
			 M347.187,202.25l76.047-77.082l64.706,247.286L347.187,202.25z"/>
	</g>
</g>
<g>
</g>
<g>
</g>
<g>
</g>
<g>
</g>
<g>
</g>
<g>
</g>
<g>
</g>
<g>
</g>
<g>
</g>
<g>
</g>
<g>
</g>
<g>
</g>
<g>
</g>
<g>
</g>
<g>
</g>
</svg>
