<svg id="Icons" height="512" viewBox="0 0 74 74" width="512" xmlns="http://www.w3.org/2000/svg"><path d="m29.05 48.44a.91.91 0 0 1 -.45-.11 28.35 28.35 0 0 1 -9.45-8.33 29.18 29.18 0 0 0 -8.15-8.25 29 29 0 0 0 -8.26-4 1 1 0 0 1 -.31-1.82c.23-.14 5.76-3.58 16.2-5.73a20.72 20.72 0 0 1 4-.49 11.75 11.75 0 0 0 7.5-3 23 23 0 0 1 7.75-4.71 22.93 22.93 0 0 1 5.9-1.2 1 1 0 0 1 1 .59 19.4 19.4 0 0 0 14.09 10.21c1.37.34 12.6 3.28 13.12 8.27a1 1 0 0 1 -.54 1 128.81 128.81 0 0 1 -15.59 6.33 38.73 38.73 0 0 1 -11.17 1.93c-4 .08-11.32 1.32-14.73 8.73a1 1 0 0 1 -.58.53 1.26 1.26 0 0 1 -.33.05zm-23.49-21.91a39.78 39.78 0 0 1 6.56 3.54 31 31 0 0 1 8.67 8.78 26.91 26.91 0 0 0 7.84 7.2c4-7.54 11.69-8.83 16-8.92a37 37 0 0 0 10.6-1.83 124.64 124.64 0 0 0 14.57-5.87c-1.18-2.49-7.38-4.88-11.35-5.87a21 21 0 0 1 -15.2-10.74 21.76 21.76 0 0 0 -4.74 1 21.27 21.27 0 0 0 -7 4.34 13.71 13.71 0 0 1 -8.79 3.49 18.51 18.51 0 0 0 -3.64.45 58.78 58.78 0 0 0 -13.52 4.43z"/><path d="m29.05 55.83a1 1 0 0 1 -.45-.11 28.31 28.31 0 0 1 -9.46-8.35 29.1 29.1 0 0 0 -8.14-8.22c-3.46-2.22-6.23-3.57-8.25-4a1 1 0 0 1 -.77-.8 1 1 0 0 1 .45-1 40 40 0 0 1 8.35-3.63 1 1 0 1 1 .63 1.9 50 50 0 0 0 -5.89 2.34 39.82 39.82 0 0 1 6.56 3.54 30.87 30.87 0 0 1 8.66 8.76 26.49 26.49 0 0 0 7.85 7.2c4-7.56 11.7-8.83 16-8.89a37.78 37.78 0 0 0 10.6-1.84 122.4 122.4 0 0 0 14.57-5.88c-.54-1.12-2.14-2.33-4.62-3.48a1 1 0 0 1 -.44-1.37 1 1 0 0 1 1.3-.48c3.73 1.73 5.73 3.65 6 5.72a1 1 0 0 1 -.54 1 124.29 124.29 0 0 1 -15.6 6.35 39.19 39.19 0 0 1 -11.17 1.94c-4 .06-11.3 1.27-14.72 8.7a1 1 0 0 1 -.58.53 1 1 0 0 1 -.34.07z"/><path d="m29.05 63.23a1 1 0 0 1 -.45-.11 28.48 28.48 0 0 1 -9.46-8.35 29.34 29.34 0 0 0 -8.14-8.24 29.07 29.07 0 0 0 -8.26-4 1 1 0 0 1 -.31-1.82 40.74 40.74 0 0 1 8.33-3.63 1 1 0 0 1 .63 1.9 47.74 47.74 0 0 0 -5.87 2.35 40.4 40.4 0 0 1 6.56 3.53 31.17 31.17 0 0 1 8.67 8.79 26.78 26.78 0 0 0 7.84 7.2c4-7.53 11.69-8.83 16-8.92a36.53 36.53 0 0 0 10.6-1.84 124.51 124.51 0 0 0 14.57-5.85c-.55-1.11-2.14-2.33-4.61-3.51a1 1 0 0 1 -.47-1.34 1 1 0 0 1 1.34-.47c3.75 1.8 5.69 3.68 5.92 5.74a1 1 0 0 1 -.54 1 125.88 125.88 0 0 1 -15.55 6.34 39.08 39.08 0 0 1 -11.17 1.93c-4 .08-11.31 1.33-14.72 8.73a1 1 0 0 1 -.58.53 1.26 1.26 0 0 1 -.33.04z"/></svg>