<svg height="512" viewBox="0 0 59 60" width="512" xmlns="http://www.w3.org/2000/svg"><g id="Page-1" fill="none" fill-rule="evenodd"><g id="036---Condiments" fill="rgb(0,0,0)" fill-rule="nonzero"><path id="Shape" d="m9 21v2c-1.65685425 0-3 1.3431458-3 3v31c0 1.6568542 1.34314575 3 3 3h15c1.6568542 0 3-1.3431458 3-3v-31c0-1.6568542-1.3431458-3-3-3v-3c-.0042657-1.878956-1.3157476-3.5016652-3.152-3.9l-1.71-9.14c.5275442-.09306628.995078-.39540291 1.2963845-.83832348s.4108037-.98881947.3036155-1.51367652l-.6-3c-.1890322-.93192667-1.0061066-1.60328872-1.957-1.608h-3.362c-.9525369.00243234-1.7720146.6743957-1.961 1.608l-.278 1.392h-3.58c-3.21539034-.00000005-6.18653356 1.71539025-7.79422875 4.49999996-1.60769518 2.78460974-1.60769518 6.21539034 0 9.00000004 1.60769519 2.7846097 4.57883841 4.5 7.79422875 4.5zm16 29h-17v-17h17zm-1 8h-15c-.55228475 0-1-.4477153-1-1v-5h17v5c0 .5522847-.4477153 1-1 1zm1-32v5h-17v-5c0-.5522847.44771525-1 1-1h15c.5522847 0 1 .4477153 1 1zm-3-6v3h-11v-3c0-1.1045695.8954305-2 2-2h7c1.1045695 0 2 .8954305 2 2zm-6.11-13h1.22l1.69 9h-4.59zm.11-5h2.182l.6 3h-4.562l.6-3zm-7 3h3.224c-.006826.96600695.6861319 1.79518742 1.638 1.96l-1.71 9.14c-1.4687556.3238923-2.6316765 1.4443144-3.01 2.9h-.142c-3.86599321-.0000001-6.9999999-3.1340068-6.9999999-7 0-3.86599321 3.13400669-6.99999994 6.9999999-7z"/><path id="Shape" d="m57.606 18.678.645-1.613c.4961608-1.23648.7504255-2.5566876.749-3.889v-5.176c-.0049599-4.41622192-3.5837781-7.99504012-8-8h-14c-4.4162219.00495988-7.9950401 3.58377808-8 8v5.176c-.00162 1.3320066.2526541 2.6519235.749 3.888l.645 1.615c.4014573.9998764.607182 2.0675403.606 3.145v3.941c-.0020897 1.3148064-.308414 2.611294-.895 3.788-.7246014 1.4545206-1.1027995 3.0569854-1.105 4.682v3.765c0 4.622 3.157 8.075 5.054 9.736-.6659652.5638724-1.0512126 1.3913866-1.054 2.264v7c0 1.6568542 1.3431458 3 3 3h16c1.6568542 0 3-1.3431458 3-3v-7c-.0027874-.8726134-.3880348-1.7001276-1.054-2.264 1.897-1.661 5.054-5.114 5.054-9.736v-3.765c-.0007459-1.6249268-.3772186-3.2276737-1.1-4.683-.5884067-1.1758993-.8964566-2.4721049-.9-3.787v-3.941c-.0010869-1.0777749.2046321-2.1457482.606-3.146zm-4.606 35.322h-5.142c-.4490235-1.7642024-2.0375517-2.9990647-3.858-2.9990647s-3.4089765 1.2348623-3.858 2.9990647h-5.142v-4c0-.5522847.4477153-1 1-1h16c.5522847 0 1 .4477153 1 1zm-1 4h-16c-.5522847 0-1-.4477153-1-1v-1h6c.5522847 0 1-.4477153 1-1 0-1.1045695.8954305-2 2-2s2 .8954305 2 2c0 .5522847.4477153 1 1 1h6v1c0 .5522847-.4477153 1-1 1zm4.1-27.552c.5884067 1.1758993.8964566 2.4721049.9 3.787v3.765c0 4.737-4.265 8.212-5.321 9h-15.358c-1.056-.788-5.321-4.263-5.321-9v-3.765c.0020897-1.3148064.308414-2.611294.895-3.788.7246014-1.4545206 1.1027995-3.0569854 1.105-4.682v-3.941c.00162-1.3320066-.2526541-2.6519235-.749-3.888l-.645-1.615c-.4014573-.9998764-.607182-2.0675403-.606-3.145v-5.176c.0033074-3.31233757 2.6876624-5.99669262 6-6h14c3.3123376.00330738 5.9966926 2.68766243 6 6v5.176c.0010869 1.0777749-.2046321 2.1457482-.606 3.146l-.645 1.613c-.4961608 1.23648-.7504255 2.5566876-.749 3.889v3.941c.0022995 1.6253229.3804883 3.2280902 1.105 4.683z"/><path id="Shape" d="m35 38c0-.5522847-.4477153-1-1-1s-1 .4477153-1 1c0 3.018 2.336 5.525 3.728 6.75.2664773.2464982.6456084.3292316.9905511.2161563.3449428-.1130752.6015201-.4041993.6703565-.7606163s-.0608797-.7221477-.3389076-.95554c-.917-.808-3.05-2.936-3.05-5.25z"/><path id="Shape" d="m34 9c.5522847 0 1-.44771525 1-1 0-1.1045695.8954305-2 2-2 .5522847 0 1-.44771525 1-1s-.4477153-1-1-1c-2.209139 0-4 1.790861-4 4 0 .26521649.1053568.5195704.2928932.70710678s.4418903.29289322.7071068.29289322z"/><path id="Shape" d="m51.839 13h-1.257l.3-2.079c.1424616-.95791649-.4246648-1.87949692-1.344-2.184-3.6245782-.98266249-7.4454218-.98266249-11.07 0-.9191835.30409849-1.4863629 1.22534293-1.344 2.183l.3 2.08h-1.263c-.5829201-.000183-1.1369116.2539599-1.5169984.6959214-.3800869.4419614-.5484397 1.0277536-.4610016 1.6040786l2.7 18c.1530563.9751516.9909213 1.695258 1.978 1.7h10.278c.9870787-.004742 1.8249437-.7248484 1.978-1.7l2.7-18c.0874381-.576325-.0809147-1.1621172-.4610016-1.6040786-.3800868-.4419615-.9340783-.6961044-1.5169984-.6959214zm-2.7 20h-10.278l-2.7-18h2.409c.2899899.0002872.5658235-.1253236.7559805-.3442632s.2759082-.5096439.2350195-.7967368l-.475-3.22c1.6046318-.4186914 3.2556532-.6333846 4.914-.639 1.65377.0041638 3.3003021.218549 4.9.638l-.459 3.221c-.0408395.2867473.0446548.5771156.2343641.7959815.1897094.2188658.4649951.3447261.7546359.3450185h2.409z"/><path id="Shape" d="m48 17h-8c-.5522847 0-1 .4477153-1 1s.4477153 1 1 1h8c.5522847 0 1-.4477153 1-1s-.4477153-1-1-1z"/><path id="Shape" d="m47 21h-6c-.5522847 0-1 .4477153-1 1s.4477153 1 1 1h6c.5522847 0 1-.4477153 1-1s-.4477153-1-1-1z"/></g></g></svg>