<svg id="Capa_1" enable-background="new 0 0 512 512" height="512" viewBox="0 0 512 512" width="512" xmlns="http://www.w3.org/2000/svg"><g><path d="m499.164 231.319-14.71-20.511c-2.414-3.366-7.101-4.138-10.466-1.724-3.366 2.414-4.138 7.1-1.724 10.466l14.71 20.511c2.417 3.37 3.694 7.35 3.694 11.509v.72h-39.147c-.443 0-.879-.118-1.263-.343l-37.722-22.089c-3.897-2.283-8.737-2.283-12.635 0l-37.725 22.09c-.382.224-.817.342-1.261.342h-39.158v-.72c0-4.158 1.277-8.138 3.696-11.51l39.802-55.52c4.116-5.721 6.292-12.484 6.292-19.561v-41.126h69.33v41.126c0 7.074 2.176 13.838 6.281 19.545l4.71 6.58c2.408 3.363 7.089 4.149 10.464 1.733 3.368-2.411 4.145-7.096 1.733-10.464l-4.721-6.595c-2.269-3.154-3.468-6.889-3.468-10.8v-41.126h1.054c7.327 0 13.288-5.961 13.288-13.288v-55.833c0-7.327-5.961-13.288-13.288-13.288h-15.403v-28.153c0-7.328-5.962-13.29-13.29-13.29h-44.05c-7.328 0-13.29 5.962-13.29 13.29v28.153h-15.403c-7.327 0-13.288 5.961-13.288 13.288v55.835c0 7.327 5.961 13.288 13.288 13.288h1.053v41.126c0 3.912-1.199 7.646-3.476 10.81l-39.809 55.529c-4.256 5.936-6.506 12.938-6.506 20.251v160.301h-87.5l-18.125-166.802c-.899-8.175-7.775-14.339-15.994-14.339h-5.381v-23.65c0-7.328-5.962-13.29-13.29-13.29h-15.202l-12.053-67.972c-1.129-6.355-6.632-10.969-13.085-10.969h-18.566c-6.453 0-11.956 4.613-13.085 10.971l-12.053 67.97h-15.203c-7.328 0-13.29 5.962-13.29 13.29v23.65h-5.38c-8.218 0-15.094 6.164-15.996 14.349l-4.35 40c-.448 4.117 2.527 7.818 6.646 8.267 4.118.457 7.818-2.527 8.267-6.646l4.349-39.989c.062-.559.528-.98 1.085-.98h136.59c.557 0 1.022.421 1.083.97l17.948 165.171h-17.066c-3.654 0-7.185 1.528-9.687 4.192s-3.805 6.284-3.575 9.932c0 0 1.692 26.743 1.721 26.941 2.361 16.396 10.558 31.398 23.078 42.244.72.624 1.455 1.228 2.198 1.819h-170.221c-2.674 0-5.129-1.096-6.914-3.086-1.785-1.988-2.609-4.547-2.32-7.203l17.93-165.011c.447-4.118-2.528-7.819-6.646-8.267-4.124-.451-7.82 2.529-8.267 6.646l-17.929 165.011c-.744 6.848 1.467 13.715 6.067 18.842 4.601 5.128 11.19 8.068 18.079 8.068h172.45c5.469 0 10.636-1.8 14.83-5.05 8.15 3.3 16.915 5.05 25.845 5.05h242.856c10.515 0 19.069-8.56 19.069-19.08v-241.35c0-7.314-2.249-14.316-6.505-20.251zm-113.265-216.319h40.63v26.443h-40.63zm-28.691 41.443h98.013v52.411c-11.071 0-87.687 0-98.013 0zm-248.214 73.407h15.7l11.338 63.94h-38.376zm-40.065 78.94h95.83v21.94h-95.83zm291.988 58.5c3.106 0 6.165-.83 8.843-2.399l36.459-21.349 36.456 21.347c2.68 1.571 5.738 2.401 8.847 2.401h39.147v86.26h-39.157c-3.104 0-6.16.829-8.842 2.397l-36.451 21.342-36.452-21.343c-2.68-1.567-5.736-2.396-8.84-2.396h-39.168v-86.26zm-117.173 229.71c-26.515 0-49.372-19.719-53.291-45.914l-1.525-24.215h196.546l-1.525 24.214c-3.92 26.196-26.777 45.915-53.292 45.915-13.627 0-77.391 0-86.913 0zm242.856 0h-113.037c.743-.592 1.478-1.195 2.198-1.819 12.52-10.847 20.716-25.85 23.077-42.245.028-.198.049-.398.062-.598l1.659-26.343c.481-7.644-5.601-14.124-13.262-14.124h-65.538v-43.321h39.168c.443 0 .881.119 1.264.343l37.714 22.082c3.895 2.278 8.734 2.279 12.63-.001l37.712-22.08c.385-.225.822-.344 1.266-.344h39.157v124.37c-.001 2.25-1.826 4.08-4.07 4.08z"/><path d="m384.262 334.415h43.905c9.103 0 16.508-7.405 16.508-16.508v-14.983c0-9.103-7.405-16.509-16.508-16.509h-43.905c-9.103 0-16.508 7.406-16.508 16.509v14.983c0 9.103 7.405 16.508 16.508 16.508zm-1.508-31.491c0-.832.677-1.509 1.508-1.509h43.905c.831 0 1.508.677 1.508 1.509v14.983c0 .831-.677 1.508-1.508 1.508h-43.905c-.831 0-1.508-.677-1.508-1.508z"/><path d="m157.308 386.407v-43.363c0-22.312-18.152-40.464-40.464-40.464s-40.464 18.152-40.464 40.464v43.363c0 22.312 18.152 40.464 40.464 40.464s40.464-18.152 40.464-40.464zm-65.928 0v-43.363c0-14.041 11.423-25.464 25.464-25.464s25.464 11.423 25.464 25.464v43.363c0 14.041-11.423 25.464-25.464 25.464s-25.464-11.423-25.464-25.464z"/></g></svg>