<svg height="512" viewBox="0 0 52 60" width="512" xmlns="http://www.w3.org/2000/svg"><g id="Page-1" fill="none" fill-rule="evenodd"><g id="048---Condiments" fill="rgb(0,0,0)" fill-rule="nonzero" transform="translate(0 -1)"><path id="Shape" d="m18 12h-1.253l-2.832-9.552c-.2422041-.85705597-1.0243779-1.44882073-1.915-1.44882073s-1.6727959.59176476-1.915 1.44882073l-2.831 9.552h-1.254c-1.65685425 0-3 1.3431458-3 3v2.142c-1.76068514.4545933-2.99318518 2.0395884-3 3.858v36c0 2.209139 1.790861 4 4 4h16c2.209139 0 4-1.790861 4-4v-36c-.0068148-1.8184116-1.2393149-3.4034067-3-3.858v-2.142c0-1.6568542-1.3431458-3-3-3zm-6-8.982 2.66 8.982h-5.321zm-7 11.982c0-.5522847.44771525-1 1-1h12c.5522847 0 1 .4477153 1 1v2h-14zm15 44h-16c-1.1045695 0-2-.8954305-2-2v-4h20v4c0 1.1045695-.8954305 2-2 2zm2-38v3h-12c-.55228475 0-1 .4477153-1 1s.44771525 1 1 1h12v25h-20v-25h3c.55228475 0 1-.4477153 1-1s-.44771525-1-1-1h-3v-3c0-1.1045695.8954305-2 2-2h16c1.1045695 0 2 .8954305 2 2z"/><path id="Shape" d="m8 41c0 .5522847.44771525 1 1 1s1-.4477153 1-1c0-.29.7-1 2-1 .5522847 0 1-.4477153 1-1s-.4477153-1-1-1c-2.168 0-4 1.374-4 3z"/><path id="Shape" d="m11 31.909c-1.22661295-.6591096-2.60900189-.9732575-4-.909-.55228475 0-1 .4477153-1 1s.44771525 1 1 1c2.136 0 3.131.575 3.6 1.115-3.747.585-6.6 3.446-6.6 6.885 0 3.859 3.589 7 8 7s8-3.141 8-7c0-3.439-2.853-6.3-6.595-6.885.464-.54 1.459-1.115 3.595-1.115.5522847 0 1-.4477153 1-1s-.4477153-1-1-1c-1.3909058-.0645638-2.7732893.2492373-4 .908v-1.908c0-.5522847-.4477153-1-1-1s-1 .4477153-1 1zm7 9.091c0 2.757-2.691 5-6 5s-6-2.243-6-5 2.691-5 6-5 6 2.243 6 5z"/><path id="Shape" d="m49 17.142v-2.142c0-1.6568542-1.3431458-3-3-3h-1.253l-2.832-9.552c-.2422041-.85705597-1.0243779-1.44882073-1.915-1.44882073s-1.6727959.59176476-1.915 1.44882073l-2.831 9.552h-1.254c-1.6568542 0-3 1.3431458-3 3v2.142c-1.7606851.4545933-2.9931852 2.0395884-3 3.858v36c0 2.209139 1.790861 4 4 4h16c2.209139 0 4-1.790861 4-4v-36c-.0068148-1.8184116-1.2393149-3.4034067-3-3.858zm-9-14.124 2.66 8.982h-5.321zm-7 11.982c0-.5522847.4477153-1 1-1h12c.5522847 0 1 .4477153 1 1v2h-14zm15 44h-16c-1.1045695 0-2-.8954305-2-2v-4h20v4c0 1.1045695-.8954305 2-2 2zm2-8h-20v-25h3c.5522847 0 1-.4477153 1-1s-.4477153-1-1-1h-3v-3c0-1.1045695.8954305-2 2-2h16c1.1045695 0 2 .8954305 2 2v3h-12c-.5522847 0-1 .4477153-1 1s.4477153 1 1 1h12z"/><path id="Shape" d="m45.834 33h-.934c-.4731925-2.330324-2.5221184-4.0050126-4.9-4.0050126s-4.4268075 1.6746886-4.9 4.0050126h-.935c-.5829201-.000183-1.1369116.2539599-1.5169984.6959214-.3800869.4419614-.5484397 1.0277536-.4610016 1.6040786l1.693 11c.1439371.9802022.9872988 1.7050327 1.978 1.7h8.284c.9903222.0045333 1.8331159-.7201755 1.977-1.7l1.693-11c.0874381-.576325-.0809147-1.1621172-.4610016-1.6040786-.3800868-.4419615-.9340783-.6961044-1.5169984-.6959214zm-1.692 13h-8.285l-1.691-11h1.834c.5522847 0 1-.4477153 1-1 0-1.6568542 1.3431458-3 3-3s3 1.3431458 3 3c0 .5522847.4477153 1 1 1h1.835z"/></g></g></svg>