<svg height="496pt" viewBox="-32 0 496 496" width="496pt" xmlns="http://www.w3.org/2000/svg"><path d="m181.089844 305.777344c-13.601563-13.601563-21.089844-31.679688-21.089844-50.914063v-67.542969l12.289062-12.28125c7.550782-7.558593 11.710938-17.605468 11.710938-28.296874v-5.484376c0-10.691406-4.160156-20.738281-11.710938-28.289062l-22.632812-22.625c-1.496094-1.503906-3.535156-2.34375-5.65625-2.34375h-24v-16h-16v16h-24c-2.121094 0-4.160156.839844-5.65625 2.34375l-22.632812 22.625c-7.550782 7.550781-11.710938 17.597656-11.710938 28.289062v5.484376c0 10.691406 4.160156 20.738281 11.710938 28.289062l12.289062 12.28125v67.542969c0 19.234375-7.488281 37.3125-21.089844 50.914062l-19.476562 19.488281c-15.105469 15.109376-23.433594 35.199219-23.433594 56.566407v4.359375c0 21.367187 8.328125 41.457031 23.433594 56.558594l16.566406 16.570312v28.6875c0 4.425781 3.585938 8 8 8h128c4.414062 0 8-3.574219 8-8v-28.6875l16.566406-16.570312c15.105469-15.109376 23.433594-35.199219 23.433594-56.566407v-4.359375c0-21.367187-8.328125-41.457031-23.433594-56.558594zm-97.777344-201.777344h57.375l16 16h-89.375zm-27.3125 42.742188v-5.484376c0-1.792968.238281-3.546874.625-5.257812h110.75c.386719 1.710938.625 3.464844.625 5.257812v5.484376c0 6.417968-2.496094 12.449218-7.023438 16.976562l-12.289062 12.28125h-73.375l-12.289062-12.28125c-4.527344-4.535156-7.023438-10.558594-7.023438-16.976562zm112 333.257812h-112v-16h112zm40-93.824219c0 17.097657-6.65625 33.167969-18.742188 45.25l-16.570312 16.574219h-121.375l-16.570312-16.566406c-12.085938-12.089844-18.742188-28.160156-18.742188-45.257813v-4.359375c0-17.097656 6.65625-33.167968 18.742188-45.25l19.480468-19.488281c16.625-16.605469 25.777344-38.710937 25.777344-62.222656v-62.855469h64v62.855469c0 23.503906 9.152344 45.609375 25.777344 62.222656l19.480468 19.488281c12.085938 12.089844 18.742188 28.160156 18.742188 45.257813zm0 0"/><path d="m56 416h16v16h-16zm0 0"/><path d="m88 416h16v16h-16zm0 0"/><path d="m120 416h16v16h-16zm0 0"/><path d="m152 416h16v16h-16zm0 0"/><path d="m56 352h16v16h-16zm0 0"/><path d="m88 352h16v16h-16zm0 0"/><path d="m120 352h16v16h-16zm0 0"/><path d="m152 352h16v16h-16zm0 0"/><path d="m40 384h16v16h-16zm0 0"/><path d="m72 384h16v16h-16zm0 0"/><path d="m104 384h16v16h-16zm0 0"/><path d="m136 384h16v16h-16zm0 0"/><path d="m168 384h16v16h-16zm0 0"/><path d="m402.320312 231.089844c-16.976562-21.824219-26.320312-49.058594-26.320312-76.699219v-74.390625h8c4.414062 0 8-3.574219 8-8v-32c0-4.425781-3.585938-8-8-8h-8v-24c0-4.425781-3.585938-8-8-8h-64c-4.414062 0-8 3.574219-8 8v24h-8c-4.414062 0-8 3.574219-8 8v32c0 4.425781 3.585938 8 8 8h8v74.390625c0 27.640625-9.34375 54.875-26.320312 76.699219-19.136719 24.613281-29.679688 55.34375-29.679688 86.519531v170.390625c0 4.425781 3.585938 8 8 8h176c4.414062 0 8-3.574219 8-8v-170.390625c0-31.175781-10.542969-61.90625-29.679688-86.519531zm-90.320312-215.089844h48v16h-48zm-16 32h80v16h-80zm-13.679688 192.910156c19.136719-24.613281 29.679688-55.34375 29.679688-86.519531v-74.390625h48v74.390625c0 31.175781 10.542969 61.90625 29.679688 86.519531 10.832031 13.921875 18.511718 30.058594 22.6875 47.089844h-152.734376c4.167969-17.03125 11.855469-33.167969 22.6875-47.089844zm133.679688 76.699219v98.390625h-160v-98.390625c0-4.5625.34375-9.097656.847656-13.609375h158.304688c.503906 4.511719.847656 9.046875.847656 13.609375zm-160 162.390625v-48h160v48zm0 0"/><path d="m336 400c22.054688 0 40-17.945312 40-40s-17.945312-40-40-40-40 17.945312-40 40 17.945312 40 40 40zm0-64c13.230469 0 24 10.769531 24 24s-10.769531 24-24 24-24-10.769531-24-24 10.769531-24 24-24zm0 0"/></svg>