<svg height="512pt" viewBox="0 0 512 512" width="512pt" xmlns="http://www.w3.org/2000/svg"><path d="m509.070312 224.917969-30.988281-30.988281c-1.875-1.875-4.417969-2.929688-7.070312-2.929688h-15.511719v-20h14c5.523438 0 10-4.476562 10-10v-48c0-5.523438-4.476562-10-10-10h-32.082031l-20.070313-95.066406c-.976562-4.625-5.058594-7.933594-9.785156-7.933594h-20.128906c-4.726563 0-8.804688 3.308594-9.78125 7.933594l-20.070313 95.066406h-32.082031c-5.523438 0-10 4.476562-10 10v48c0 5.523438 4.476562 10 10 10h14v20h-18.511719c-2.652343 0-5.195312 1.054688-7.070312 2.929688l-30.988281 30.988281c-1.875 1.875-2.929688 4.417969-2.929688 7.070312v239.023438c0 2.652343 1.054688 5.195312 2.929688 7.070312l30.988281 30.988281c1.875 1.875 4.417969 2.929688 7.070312 2.929688h150.023438c2.652343 0 5.195312-1.054688 7.070312-2.929688l30.988281-30.988281c1.875-1.875 2.929688-4.417969 2.929688-7.070312v-82.453125c0-5.523438-4.480469-10-10-10-5.523438 0-10 4.476562-10 10v78.3125l-25.132812 25.128906h-141.734376l-25.132812-25.132812v-230.734376l25.132812-25.132812h141.734376l25.132812 25.132812v72.425782c0 5.523437 4.476562 10 10 10s10-4.476563 10-10v-76.570313c0-2.652343-1.054688-5.195312-2.929688-7.070312zm-113.523437-204.917969h3.90625l17.523437 83h-38.957031zm-60.046875 103h124v28h-124zm24 68v-20h76v20zm0 0"/><path d="m336 249.5c-5.523438 0-10 4.476562-10 10v184c0 5.523438 4.476562 10 10 10h120c5.523438 0 10-4.476562 10-10v-184c0-5.523438-4.476562-10-10-10zm110 184h-100v-164h100zm0 0"/><path d="m235.339844 365.316406c2.335937-4.605468 3.660156-9.808594 3.660156-15.316406 0-18.746094-15.253906-34-34-34h-7.34375c1.9375-4.269531 3.015625-9.003906 3.015625-13.988281 0-18.742188-15.246094-33.988281-33.988281-33.988281h-8.15625c-16.039063 0-30.621094-9.46875-37.148438-24.121094l-.441406-.996094c-2.683594-6.027344-9.0625-9.285156-15.519531-7.910156s-10.964844 6.941406-10.964844 13.539062c0 3.695313-2 7.121094-5.222656 8.933594l-11.257813 6.339844c-12.117187 6.828125-19.644531 19.707031-19.644531 33.613281 0 6.730469 1.730469 13.0625 4.773437 18.578125h-9.101562c-18.746094 0-34 15.25-34 34 0 5.609375 1.375 10.898438 3.789062 15.566406-13.773437 4.347656-23.789062 17.242188-23.789062 32.433594 0 5.78125 1.453125 11.230469 4.011719 16.003906-2.429688 1.824219-4.011719 4.722656-4.011719 7.996094 0 49.625 40.375 90 90 90h80c49.625 0 90-40.375 90-90 0-3.273438-1.582031-6.171875-4.011719-7.996094 2.558594-4.773437 4.011719-10.222656 4.011719-16.003906 0-15.507812-10.441406-28.613281-24.660156-32.683594zm-201.339844 18.683594h96c5.523438 0 10-4.476562 10-10s-4.476562-10-10-10h-76c-7.71875 0-14-6.28125-14-14s6.28125-14 14-14h42.902344c5.523437 0 10-4.476562 10-10s-4.476563-10-10-10c-10.242188 0-18.574219-8.335938-18.574219-18.578125 0-6.695313 3.625-12.898437 9.460937-16.1875l11.257813-6.339844c4.675781-2.632812 8.484375-6.421875 11.144531-10.886719 11.3125 14.90625 29.121094 24.011719 48.335938 24.011719h8.15625c7.714844 0 13.988281 6.277344 13.988281 13.992188 0 7.710937-6.277344 13.988281-13.988281 13.988281-5.523438 0-10 4.476562-10 10s4.476562 10 10 10h38.316406c7.71875 0 14 6.28125 14 14s-6.28125 14-14 14h-26.003906c-5.523438 0-10 4.476562-10 10s4.476562 10 10 10h47.003906c7.71875 0 14 6.28125 14 14s-6.28125 14-14 14h-192c-7.71875 0-14-6.28125-14-14s6.28125-14 14-14zm136 108h-80c-35.203125 0-64.421875-26.121094-69.289062-60h218.578124c-4.867187 33.878906-34.085937 60-69.289062 60zm0 0"/><path d="m396 392c18.226562 0 33.054688-14.828125 33.054688-33.054688 0-15.417968-19.652344-38.105468-25.675782-44.691406-1.894531-2.074218-4.570312-3.253906-7.378906-3.253906s-5.484375 1.179688-7.378906 3.253906c-6.023438 6.585938-25.675782 29.273438-25.675782 44.691406 0 18.226563 14.828126 33.054688 33.054688 33.054688zm.003906-55.507812c7.410156 9.472656 13.050782 18.929687 13.050782 22.453124 0 7.199219-5.855469 13.054688-13.054688 13.054688s-13.054688-5.855469-13.054688-13.054688c0-3.511718 5.644532-12.96875 13.058594-22.453124zm0 0"/><path d="m502 338.558594c-2.628906 0-5.210938 1.070312-7.070312 2.933594-1.859376 1.859374-2.929688 4.4375-2.929688 7.066406 0 2.632812 1.070312 5.210937 2.929688 7.070312 1.859374 1.859375 4.441406 2.929688 7.070312 2.929688s5.210938-1.066406 7.070312-2.929688c1.859376-1.859375 2.929688-4.4375 2.929688-7.070312 0-2.628906-1.070312-5.207032-2.929688-7.066406-1.859374-1.863282-4.441406-2.933594-7.070312-2.933594zm0 0"/></svg>