<svg height="512" viewBox="0 0 64 64" width="512" xmlns="http://www.w3.org/2000/svg"><g id="outline"><path d="m8 26v33a3 3 0 0 0 3 3h14a3 3 0 0 0 3-3v-33a5.009 5.009 0 0 0 -4-4.9v-2.1h1a1 1 0 0 0 1-1v-3.938a3 3 0 0 0 -3-3.062h-1.1l-.9-8.11a1 1 0 0 0 -1-.89h-4a1 1 0 0 0 -.994.89l-.9 8.11h-1.044a3 3 0 0 0 -3.062 3v4a1 1 0 0 0 1 1h1v2.1a5.009 5.009 0 0 0 -4 4.9zm8.9-22h2.2l.779 7h-3.762zm-4.9 10a1.01 1.01 0 0 1 1.062-1h9.938a1.01 1.01 0 0 1 1 1.062v2.938h-12zm10 5v2h-8v-2zm-9 4h10a3 3 0 0 1 3 3v33a1 1 0 0 1 -1 1h-14a1 1 0 0 1 -1-1v-33a3 3 0 0 1 3-3z"/><path d="m22 56h2v2h-2z"/><path d="m22 52h2v2h-2z"/><path d="m18 39a6 6 0 1 0 -6-6 6.006 6.006 0 0 0 6 6zm0-10a4 4 0 1 1 -4 4 4 4 0 0 1 4-4z"/><path d="m40 27a5.006 5.006 0 0 0 -5 5v27.156a2.846 2.846 0 0 0 2.844 2.844h16.312a2.965 2.965 0 0 0 2.844-3v-27a5.006 5.006 0 0 0 -5-5h-1v-19h1a1 1 0 0 0 1-1v-2a3 3 0 0 0 -3-3h-8a3 3 0 0 0 -3 3v2a1 1 0 0 0 1 1h1v19zm-3 11h14v13h-14zm4-33a1 1 0 0 1 1-1h8a1 1 0 0 1 1 1v1h-10zm1 24a1 1 0 0 0 1-1v-20h6v4h-3a1 1 0 0 0 -1 1v11a1 1 0 0 0 1 1h3v3a1 1 0 0 0 1 1h2a3 3 0 0 1 3 3v27a1 1 0 0 1 -.844 1h-16.312a.845.845 0 0 1 -.844-.844v-6.156h15a1 1 0 0 0 1-1v-15a1 1 0 0 0 -1-1h-15v-4a3 3 0 0 1 3-3zm7-15v9h-2v-9z"/><path d="m39 40h10v2h-10z"/><path d="m47 47h2v2h-2z"/></g></svg>