<?xml version="1.0" encoding="iso-8859-1"?>
<!-- Generator: Adobe Illustrator 19.0.0, SVG Export Plug-In . SVG Version: 6.00 Build 0)  -->
<svg version="1.1" id="Capa_1" xmlns="http://www.w3.org/2000/svg" xmlns:xlink="http://www.w3.org/1999/xlink" x="0px" y="0px"
	 viewBox="0 0 512 512" style="enable-background:new 0 0 512 512;" xml:space="preserve">
<g>
	<g>
		<path d="M494.933,136.533H307.2c-4.71,0-8.533,3.814-8.533,8.533v358.4c0,4.719,3.823,8.533,8.533,8.533h187.733
			c4.71,0,8.533-3.814,8.533-8.533v-358.4C503.467,140.348,499.644,136.533,494.933,136.533z M486.4,494.933H315.733V153.6H486.4
			V494.933z"/>
	</g>
</g>
<g>
	<g>
		<path d="M469.333,102.4H332.8c-4.71,0-8.533,3.814-8.533,8.533v34.133c0,4.719,3.823,8.533,8.533,8.533h136.533
			c4.71,0,8.533-3.814,8.533-8.533v-34.133C477.867,106.214,474.044,102.4,469.333,102.4z M460.8,136.533H341.333v-17.067H460.8
			V136.533z"/>
	</g>
</g>
<g>
	<g>
		<path d="M452.267,68.267h-102.4c-4.71,0-8.533,3.814-8.533,8.533v34.133c0,4.719,3.823,8.533,8.533,8.533h102.4
			c4.71,0,8.533-3.814,8.533-8.533V76.8C460.8,72.081,456.977,68.267,452.267,68.267z M443.733,102.4H358.4V85.333h85.333V102.4z"/>
	</g>
</g>
<g>
	<g>
		<path d="M434.944,74.735L417.877,6.468C416.93,2.662,413.517,0,409.6,0h-17.067c-3.917,0-7.33,2.662-8.277,6.468l-17.067,68.267
			c-0.64,2.543-0.06,5.248,1.553,7.313c1.613,2.074,4.096,3.285,6.724,3.285h51.2c2.628,0,5.111-1.212,6.724-3.285
			C435.004,79.983,435.584,77.286,434.944,74.735z M386.398,68.267l12.8-51.2h3.738l12.8,51.2H386.398z"/>
	</g>
</g>
<g>
	<g>
		<path d="M204.8,119.467H68.267c-4.71,0-8.533,3.814-8.533,8.533v34.133c0,4.719,3.823,8.533,8.533,8.533H204.8
			c4.71,0,8.533-3.814,8.533-8.533V128C213.333,123.281,209.51,119.467,204.8,119.467z M196.267,153.6H76.8v-17.067h119.467V153.6z"
			/>
	</g>
</g>
<g>
	<g>
		<path d="M204.8,187.733H68.267c-4.71,0-8.533,3.814-8.533,8.533V230.4c0,4.719,3.823,8.533,8.533,8.533H204.8
			c4.71,0,8.533-3.814,8.533-8.533v-34.133C213.333,191.548,209.51,187.733,204.8,187.733z M196.267,221.867H76.8V204.8h119.467
			V221.867z"/>
	</g>
</g>
<g>
	<g>
		<path d="M170.411,125.935l-17.067-68.267c-0.947-3.806-4.361-6.468-8.277-6.468H128c-3.917,0-7.33,2.662-8.277,6.468
			l-17.067,68.267c-0.64,2.543-0.06,5.248,1.553,7.313c1.613,2.074,4.096,3.285,6.724,3.285h51.2c2.628,0,5.111-1.212,6.724-3.285
			C170.47,131.183,171.051,128.486,170.411,125.935z M121.865,119.467l12.8-51.2h3.738l12.8,51.2H121.865z"/>
	</g>
</g>
<g>
	<g>
		<path d="M230.409,221.867H42.65c-18.816,0-34.116,15.309-34.116,34.116v221.901c0,18.807,15.3,34.116,34.116,34.116h187.759
			c18.816,0,34.125-15.309,34.125-34.116V255.983C264.533,237.175,249.225,221.867,230.409,221.867z M247.467,477.884
			c0,9.404-7.646,17.05-17.058,17.05H42.65c-9.404,0-17.05-7.646-17.05-17.05V255.983c0-9.404,7.646-17.05,17.05-17.05h187.759
			c9.412,0,17.058,7.646,17.058,17.05V477.884z"/>
	</g>
</g>
<g>
	<g>
		<path d="M168.166,360.9c-3.336-3.336-8.73-3.337-12.066,0c-3.336,3.337-3.337,8.73,0,12.066
			c11.486,11.494,10.155,32.273,3.738,47.761c-5.7,13.756-15.061,23.006-23.305,23.006c-4.71,0-8.533,3.814-8.533,8.533
			s3.823,8.533,8.533,8.533c15.531,0,30.507-12.851,39.083-33.545C183.569,408.038,186.394,379.136,168.166,360.9z"/>
	</g>
</g>
<g>
	<g>
		<path d="M211.268,369.34c-3.593-14.259-11.605-26.829-23.424-36.565l-4.122-3.123c-18.466-13.005-42.095-17.126-64.828-11.401
			c-41.199,10.445-66.816,50.338-57.097,88.926c4.489,17.843,15.932,33.015,32.213,42.743c11.972,7.142,25.933,10.846,40.115,10.846
			c6.69,0,13.431-0.828,20.045-2.5C195.362,447.821,220.979,407.927,211.268,369.34z M149.973,441.719
			c-16.239,4.122-33.459,1.758-47.215-6.46c-12.356-7.381-21.026-18.833-24.405-32.247c-7.424-29.483,12.646-60.083,44.74-68.207
			c5.342-1.357,10.735-2.014,16.06-2.014c12.501,0,24.585,3.661,34.483,10.633l3.61,2.731c8.738,7.194,14.771,16.657,17.468,27.358
			C202.129,402.995,182.059,433.596,149.973,441.719z"/>
	</g>
</g>
<g>
	<g>
		<path d="M187.733,264.533c-32.939,0-59.733,26.803-59.733,59.733c0,4.719,3.823,8.533,8.533,8.533
			c32.939,0,59.733-26.803,59.733-59.733C196.267,268.348,192.444,264.533,187.733,264.533z M146.167,314.641
			c3.661-15.812,16.128-28.279,31.94-31.949C174.447,298.505,161.971,310.972,146.167,314.641z"/>
	</g>
</g>
<g>
	<g>
		<path d="M187.733,153.6h-102.4c-4.71,0-8.533,3.814-8.533,8.533v34.133c0,4.719,3.823,8.533,8.533,8.533h102.4
			c4.71,0,8.533-3.814,8.533-8.533v-34.133C196.267,157.414,192.444,153.6,187.733,153.6z M179.2,187.733H93.867v-17.067H179.2
			V187.733z"/>
	</g>
</g>
<g>
	<g>
		<path d="M449.766,318.234L407.1,275.567c-3.337-3.337-8.73-3.337-12.066,0l-42.667,42.667c-3.337,3.337-3.337,8.73,0,12.066
			l42.667,42.667c1.664,1.664,3.849,2.5,6.033,2.5c2.185,0,4.369-0.836,6.033-2.5l42.667-42.667
			C453.103,326.963,453.103,321.57,449.766,318.234z M401.067,354.867l-30.6-30.601l30.6-30.601l30.601,30.601L401.067,354.867z"/>
	</g>
</g>
<g>
	<g>
		<path d="M375.467,170.667h-34.133c-4.71,0-8.533,3.814-8.533,8.533v34.133c0,4.719,3.823,8.533,8.533,8.533
			c4.71,0,8.533-3.814,8.533-8.533v-25.6h25.6c4.71,0,8.533-3.814,8.533-8.533C384,174.481,380.177,170.667,375.467,170.667z"/>
	</g>
</g>
<g>
	<g>
		<path d="M341.333,238.933c-4.71,0-8.533,3.814-8.533,8.533V281.6c0,4.719,3.823,8.533,8.533,8.533c4.71,0,8.533-3.814,8.533-8.533
			v-34.133C349.867,242.748,346.044,238.933,341.333,238.933z"/>
	</g>
</g>
<g>
	<g>
		<path d="M460.8,426.667c-4.71,0-8.533,3.814-8.533,8.533v25.6h-25.6c-4.71,0-8.533,3.814-8.533,8.533s3.823,8.533,8.533,8.533
			H460.8c4.71,0,8.533-3.814,8.533-8.533V435.2C469.333,430.481,465.51,426.667,460.8,426.667z"/>
	</g>
</g>
<g>
	<g>
		<path d="M460.8,358.4c-4.71,0-8.533,3.814-8.533,8.533v34.133c0,4.719,3.823,8.533,8.533,8.533c4.71,0,8.533-3.814,8.533-8.533
			v-34.133C469.333,362.214,465.51,358.4,460.8,358.4z"/>
	</g>
</g>
<g>
</g>
<g>
</g>
<g>
</g>
<g>
</g>
<g>
</g>
<g>
</g>
<g>
</g>
<g>
</g>
<g>
</g>
<g>
</g>
<g>
</g>
<g>
</g>
<g>
</g>
<g>
</g>
<g>
</g>
</svg>
