<svg clip-rule="evenodd" fill-rule="evenodd" height="512" stroke-linejoin="round" stroke-miterlimit="2" viewBox="0 0 64 64" width="512" xmlns="http://www.w3.org/2000/svg"><g transform="translate(-1 -299)"><path d="m61 327v-14c0-1.326-.527-2.598-1.464-3.536-.938-.937-2.21-1.464-3.536-1.464h-46c-1.326 0-2.598.527-3.536 1.464-.937.938-1.464 2.21-1.464 3.536v36c0 1.326.527 2.598 1.464 3.536.938.937 2.21 1.464 3.536 1.464h46c1.326 0 2.598-.527 3.536-1.464.937-.938 1.464-2.21 1.464-3.536v-18c0-.552-.448-1-1-1s-1 .448-1 1v18c0 .796-.316 1.559-.879 2.121-.562.563-1.325.879-2.121.879h-46c-.796 0-1.559-.316-2.121-.879-.563-.562-.879-1.325-.879-2.121v-36c0-.796.316-1.559.879-2.121.562-.563 1.325-.879 2.121-.879h46c.796 0 1.559.316 2.121.879.563.562.879 1.325.879 2.121v14c0 .552.448 1 1 1s1-.448 1-1zm-24 11c0-.796-.316-1.559-.879-2.121-.562-.563-1.325-.879-2.121-.879h-6c-.796 0-1.559.316-2.121.879-.563.562-.879 1.325-.879 2.121v9c0 .796.316 1.559.879 2.121.562.563 1.325.879 2.121.879h6c.796 0 1.559-.316 2.121-.879.563-.562.879-1.325.879-2.121zm-14-3c0-1.657-1.343-3-3-3h-8c-1.657 0-3 1.343-3 3v12c0 1.657 1.343 3 3 3h8c1.657 0 3-1.343 3-3zm33-3c0-.796-.316-1.559-.879-2.121-.562-.563-1.325-.879-2.121-.879h-11c-.796 0-1.559.316-2.121.879-.563.562-.879 1.325-.879 2.121v15c0 .796.316 1.559.879 2.121.562.563 1.325.879 2.121.879h11c.796 0 1.559-.316 2.121-.879.563-.562.879-1.325.879-2.121zm-35 3c0-.552-.448-1-1-1h-8c-.552 0-1 .448-1 1v12c0 .552.448 1 1 1h8c.552 0 1-.448 1-1zm33-3c0-.265-.105-.52-.293-.707-.187-.188-.442-.293-.707-.293h-11c-.265 0-.52.105-.707.293-.188.187-.293.442-.293.707v15c0 .265.105.52.293.707.187.188.442.293.707.293h11c.265 0 .52-.105.707-.293.188-.187.293-.442.293-.707zm-19 6v9c0 .265-.105.52-.293.707-.187.188-.442.293-.707.293h-6c-.265 0-.52-.105-.707-.293-.188-.187-.293-.442-.293-.707v-9c0-.265.105-.52.293-.707.187-.188.442-.293.707-.293h6c.265 0 .52.105.707.293.188.187.293.442.293.707zm2-19v-4c0-1.657-1.343-3-3-3h-22c-1.657 0-3 1.343-3 3v12c0 1.657 1.343 3 3 3h10.93c.334 0 .646.167.832.445.256.385.556.834.812 1.219.557.835 1.493 1.336 2.496 1.336h6.93c1.657 0 3-1.343 3-3v-7c0-.552-.448-1-1-1s-1 .448-1 1v7c0 .552-.448 1-1 1h-6.93c-.334 0-.646-.167-.832-.445-.256-.385-.556-.834-.812-1.219-.557-.835-1.493-1.336-2.496-1.336h-10.93c-.552 0-1-.448-1-1v-12c0-.552.448-1 1-1h22c.552 0 1 .448 1 1v4c0 .552.448 1 1 1s1-.448 1-1zm19-4c0-.796-.316-1.559-.879-2.121-.562-.563-1.325-.879-2.121-.879h-11c-.796 0-1.559.316-2.121.879-.563.562-.879 1.325-.879 2.121v9c0 .796.316 1.559.879 2.121.562.563 1.325.879 2.121.879h11c.796 0 1.559-.316 2.121-.879.563-.562.879-1.325.879-2.121zm-2 0v9c0 .265-.105.52-.293.707-.187.188-.442.293-.707.293h-11c-.265 0-.52-.105-.707-.293-.188-.187-.293-.442-.293-.707v-9c0-.265.105-.52.293-.707.187-.188.442-.293.707-.293h11c.265 0 .52.105.707.293.188.187.293.442.293.707z"/></g></svg>