<svg id="Capa_1" enable-background="new 0 0 512 512" height="512" viewBox="0 0 512 512" width="512" xmlns="http://www.w3.org/2000/svg"><g><path d="m458.788 27.693h-405.576c-29.341 0-53.212 23.871-53.212 53.212v350.19c0 29.341 23.871 53.212 53.212 53.212h405.575c29.341 0 53.212-23.871 53.212-53.212v-350.19c.001-29.341-23.87-53.212-53.211-53.212zm38.212 403.402c0 21.07-17.142 38.212-38.212 38.212h-405.576c-21.07 0-38.212-17.142-38.212-38.212v-350.19c0-21.07 17.142-38.212 38.212-38.212h405.575c21.07 0 38.212 17.142 38.212 38.212v350.19z"/><path d="m214.174 57.693h-134.136c-27.591 0-50.038 22.447-50.038 50.038v106.443c0 18.927 15.398 34.326 34.326 34.326h149.849c18.927 0 34.326-15.399 34.326-34.326v-122.155c-.001-18.928-15.399-34.326-34.327-34.326zm19.326 156.481c0 10.656-8.669 19.326-19.326 19.326h-149.848c-10.657 0-19.326-8.67-19.326-19.326v-106.443c0-19.32 15.718-35.038 35.038-35.038h134.136c10.656 0 19.326 8.669 19.326 19.326z"/><path d="m431.96 57.69h-11.67c-4.142 0-7.5 3.358-7.5 7.5s3.358 7.5 7.5 7.5h11.67c19.321 0 35.04 15.719 35.04 35.04v106.44c0 10.659-8.671 19.33-19.33 19.33h-149.84c-10.659 0-19.33-8.671-19.33-19.33v-122.15c0-10.659 8.671-19.33 19.33-19.33h92.46c4.142 0 7.5-3.358 7.5-7.5s-3.358-7.5-7.5-7.5h-92.46c-18.93 0-34.33 15.4-34.33 34.33v122.15c0 18.93 15.4 34.33 34.33 34.33h149.84c18.93 0 34.33-15.4 34.33-34.33v-106.44c0-27.592-22.448-50.04-50.04-50.04z"/><path d="m214.174 263.5h-149.848c-18.928 0-34.326 15.398-34.326 34.326v106.443c0 27.591 22.447 50.038 50.038 50.038h134.136c18.927 0 34.326-15.399 34.326-34.326v-122.155c0-18.928-15.398-34.326-34.326-34.326zm19.326 156.481c0 10.656-8.669 19.326-19.326 19.326h-134.136c-19.32 0-35.038-15.718-35.038-35.038v-106.443c0-10.656 8.669-19.326 19.326-19.326h149.849c10.656 0 19.326 8.67 19.326 19.326v122.155z"/><path d="m447.674 263.5h-149.848c-18.927 0-34.326 15.398-34.326 34.326v122.156c0 18.927 15.398 34.326 34.326 34.326h134.136c27.591 0 50.038-22.447 50.038-50.038v-106.444c0-18.928-15.398-34.326-34.326-34.326zm19.326 140.769c0 19.32-15.718 35.038-35.038 35.038h-134.136c-10.656 0-19.326-8.67-19.326-19.326v-122.155c0-10.656 8.669-19.326 19.326-19.326h149.849c10.656 0 19.326 8.67 19.326 19.326v106.443z"/><path d="m417.844 100.551c-6.635-6.634-16.616-8.053-24.836-3.531l-5.734 3.155-32.78-18.034c-8.226-4.523-18.211-3.102-24.846 3.537-6.63 6.634-8.043 16.614-3.518 24.831l9.844 17.888-26.416 14.533c-10.538 5.798-17.553 15.952-19.246 27.86s2.214 23.615 10.719 32.12l14.455 14.454c7.201 7.201 16.699 11.106 26.67 11.106 1.805 0 3.625-.128 5.45-.387 11.908-1.693 22.062-8.708 27.86-19.246l3.3-5.999c5.669 5.558 12.987 9.206 21.128 10.364 1.827.26 3.647.388 5.454.388 9.97 0 19.467-3.904 26.667-11.105l14.46-14.46c8.505-8.505 12.411-20.212 10.717-32.121-1.694-11.907-8.708-22.06-19.246-27.854l-14.525-7.988c1.643-6.911-.325-14.259-5.577-19.511zm-78.574 2.725c-1.979-3.593.256-6.262.988-6.995.734-.734 3.407-2.975 7.007-.996l24.449 13.451-22.598 12.432zm23.052 98.332c-3.502 6.366-9.636 10.603-16.829 11.626s-14.265-1.337-19.402-6.475l-14.455-14.454c-5.137-5.137-7.498-12.209-6.475-19.402 1.022-7.193 5.26-13.327 11.626-16.829l5.951-3.274 13.508 13.508c1.464 1.465 3.384 2.197 5.303 2.197s3.839-.732 5.303-2.197c2.929-2.929 2.929-7.677 0-10.606l-10.43-10.43 63.815-35.107c1.051-.578 2.024-.796 2.892-.796 2.099 0 3.588 1.272 4.106 1.791.733.733 2.973 3.405.995 6.999l-18.037 32.785-14.472-14.472c-2.929-2.929-7.678-2.929-10.606 0-2.929 2.929-2.929 7.678 0 10.606l17.55 17.55zm71.629-58.262-9.915 9.914c-2.929 2.929-2.929 7.678 0 10.607 1.464 1.465 3.384 2.197 5.303 2.197s3.839-.732 5.303-2.197l7.414-7.414c.109.516.207 1.037.282 1.565 1.023 7.193-1.336 14.265-6.473 19.402l-14.46 14.46c-5.137 5.136-12.209 7.496-19.401 6.473-6.368-.906-11.902-4.335-15.524-9.541l30.386-55.233 13.849 7.616c1.152.633 2.231 1.355 3.236 2.151z"/><path d="m210.04 346.94c0-9.058-3.529-17.576-9.936-23.982l-27.223-27.234c-13.224-13.21-34.739-13.21-47.973.011-1.167 1.17-2.236 2.406-3.207 3.705-13.132-8.47-30.883-6.964-42.38 4.521-6.398 6.41-9.921 14.926-9.921 23.978 0 6.55 1.845 12.819 5.298 18.222-.831.687-1.632 1.415-2.401 2.184-6.408 6.408-9.937 14.925-9.937 23.983s3.529 17.576 9.937 23.983l16.77 16.77c2.929 2.929 7.678 2.929 10.606 0 2.929-2.929 2.929-7.677 0-10.606l-16.77-16.77c-3.575-3.574-5.543-8.325-5.543-13.376s1.969-9.802 5.544-13.377c1.736-1.737 3.762-3.1 6.02-4.052 2.305-.972 3.973-3.029 4.449-5.484.476-2.456-.304-4.987-2.079-6.749l-1.355-1.345c-3.572-3.579-5.539-8.331-5.539-13.382s1.967-9.803 5.531-13.374c7.378-7.37 19.382-7.37 26.742-.017l1.91 1.92c1.831 1.84 4.484 2.603 7.01 2.018 2.528-.586 4.574-2.437 5.409-4.894.931-2.74 2.455-5.185 4.52-7.256 7.377-7.37 19.381-7.37 26.755-.004l27.221 27.231c3.575 3.574 5.543 8.325 5.543 13.376 0 5.052-1.967 9.797-5.553 13.376-2.049 2.056-4.486 3.575-7.245 4.514-2.449.834-4.295 2.871-4.885 5.39-.589 2.519.161 5.164 1.985 6.998l1.924 1.935c3.568 3.568 5.533 8.315 5.533 13.366s-1.967 9.804-5.531 13.374c-7.377 7.371-19.38 7.37-26.737.021l-1.37-1.38c-1.762-1.774-4.294-2.555-6.749-2.079-2.456.476-4.512 2.145-5.484 4.449-.952 2.258-2.315 4.283-4.052 6.02-4.5 4.5-10.917 6.43-17.167 5.163-4.059-.822-8.018 1.802-8.84 5.861-.823 4.06 1.802 8.018 5.861 8.84 2.26.458 4.532.682 6.787.682 8.908 0 17.53-3.504 23.966-9.94.77-.77 1.499-1.572 2.186-2.404 13.114 8.347 30.762 6.805 42.208-4.631 6.398-6.41 9.922-14.926 9.922-23.978 0-6.628-1.888-12.964-5.401-18.388 1.301-.974 2.536-2.045 3.7-3.213 6.41-6.396 9.941-14.912 9.941-23.976z"/><path d="m214.699 115.716c.574-12.597-7.477-24.464-20.103-28.178-14.833-4.363-30.448 4.156-34.812 18.989l-3.153 10.72-18.787 10.246c-4.12-3.252-8.862-5.723-14.05-7.249-10.659-3.135-21.902-1.931-31.656 3.389l-11.365 6.199c-9.754 5.321-16.853 14.121-19.988 24.781s-1.932 21.902 3.389 31.656l10.658 19.54c5.32 9.754 14.121 16.853 24.781 19.988 3.888 1.144 7.852 1.71 11.794 1.71 6.867 0 13.666-1.719 19.862-5.099l11.365-6.199c15.716-8.572 23.7-25.876 21.228-42.633l18.102-9.88 10.719 3.153c7.185 2.113 14.764 1.301 21.338-2.286 6.576-3.587 11.361-9.519 13.471-16.694.762-2.577 1.148-5.247 1.148-7.936 0-10.062-5.495-19.267-13.941-24.217zm-79.247 87.324-11.365 6.199c-6.237 3.402-13.425 4.172-20.241 2.167-6.816-2.004-12.443-6.543-15.845-12.78l-10.658-19.54c-7.022-12.875-2.262-29.062 10.613-36.085l11.365-6.199c6.236-3.402 13.427-4.172 20.241-2.167 6.816 2.004 12.443 6.543 15.845 12.78l10.658 19.539c7.023 12.875 2.262 29.063-10.613 36.086zm77.652-59.412c-.982 3.34-3.208 6.098-6.266 7.767-3.058 1.668-6.583 2.046-9.922 1.064l-13.7-4.03c-1.909-.562-3.963-.342-5.709.612l-18.592 10.147-10.339-18.955c-.212-.388-.439-.765-.661-1.145l18.627-10.159c1.746-.952 3.042-2.56 3.604-4.468l4.03-13.7c2.029-6.898 9.291-10.86 16.188-8.831 6.898 2.029 10.859 9.291 8.831 16.189-.561 1.908-.341 3.962.612 5.708s2.561 3.043 4.469 3.604c5.514 1.62 9.364 6.762 9.364 12.504 0 1.247-.179 2.487-.536 3.693z"/><path d="m323.496 351.956c10.048 0 18.933-5.062 24.249-12.766 4.491 2.656 9.666 4.124 14.995 4.124 16.233 0 29.44-13.211 29.44-29.45s-13.207-29.45-29.44-29.45c-9.913 0-18.885 4.988-24.252 12.763-4.395-2.611-9.52-4.116-14.992-4.116-16.237 0-29.448 13.21-29.448 29.448 0 16.237 13.21 29.447 29.448 29.447zm39.244-52.542c7.962 0 14.44 6.482 14.44 14.45s-6.478 14.45-14.44 14.45c-3.744 0-7.21-1.414-9.864-3.916.04-.625.067-1.254.067-1.889 0-5.095-1.302-9.891-3.588-14.075 2.166-5.353 7.427-9.02 13.385-9.02zm-39.244 8.647c7.966 0 14.448 6.481 14.448 14.448 0 7.966-6.481 14.448-14.448 14.448s-14.448-6.481-14.448-14.448 6.481-14.448 14.448-14.448z"/><path d="m384.067 375.386c-16.237 0-29.448 13.21-29.448 29.448s13.21 29.448 29.448 29.448 29.448-13.21 29.448-29.448-13.211-29.448-29.448-29.448zm0 43.896c-7.966 0-14.448-6.481-14.448-14.448s6.481-14.448 14.448-14.448 14.448 6.481 14.448 14.448-6.482 14.448-14.448 14.448z"/><path d="m421.287 320.481c-16.237 0-29.448 13.21-29.448 29.448 0 16.237 13.21 29.448 29.448 29.448s29.448-13.21 29.448-29.448-13.211-29.448-29.448-29.448zm0 43.895c-7.966 0-14.448-6.481-14.448-14.448s6.481-14.448 14.448-14.448 14.448 6.481 14.448 14.448-6.482 14.448-14.448 14.448z"/><path d="m323.163 359.569c-16.237 0-29.448 13.21-29.448 29.448s13.21 29.448 29.448 29.448 29.448-13.21 29.448-29.448-13.211-29.448-29.448-29.448zm0 43.895c-7.966 0-14.448-6.481-14.448-14.448s6.481-14.448 14.448-14.448 14.448 6.481 14.448 14.448-6.482 14.448-14.448 14.448z"/></g></svg>