<?xml version="1.0"?>
<svg xmlns="http://www.w3.org/2000/svg" id="Outline" viewBox="0 0 64 64" width="512" height="512"><g><path d="M61,34a1,1,0,0,0,1-1V22A11.013,11.013,0,0,0,51,11H13A11.013,11.013,0,0,0,2,22V42A11.013,11.013,0,0,0,13,53H51A11.013,11.013,0,0,0,62,42V37a1,1,0,0,0-2,0v5a9.011,9.011,0,0,1-9,9H43V49h8a7.008,7.008,0,0,0,7-7V22a7.008,7.008,0,0,0-7-7H46a1,1,0,0,0,0,2h5a5.006,5.006,0,0,1,5,5v.343l-13,13V28.414l5.207-5.207a1,1,0,0,0-1.414-1.414L43,25.586V13h8a9.011,9.011,0,0,1,9,9V33A1,1,0,0,0,61,34ZM21,25.829l-13,13V33.171l13-13ZM51,47H43v-.343l13-13V42A5.006,5.006,0,0,1,51,47Zm5-21.829v5.658l-13,13V38.171ZM41,51H23V37a1,1,0,0,0-2,0V51H13a9.011,9.011,0,0,1-9-9V22a9.011,9.011,0,0,1,9-9h8v2H13a7.008,7.008,0,0,0-7,7v3a1,1,0,0,0,2,0V22a5.006,5.006,0,0,1,5-5h8v.343l-13,13V29a1,1,0,0,0-2,0V42a7.008,7.008,0,0,0,7,7h5a1,1,0,0,0,0-2H15.414l3.293-3.293a1,1,0,0,0-1.414-1.414l-4.669,4.669A4.991,4.991,0,0,1,8,42v-.343l13-13V33a1,1,0,0,0,2,0V13H41Z"/><path d="M32,30a7,7,0,1,0-7-7A7.008,7.008,0,0,0,32,30Zm0-12a5,5,0,1,1-5,5A5.006,5.006,0,0,1,32,18Z"/><path d="M26,39H38a1,1,0,0,0,0-2H27V35H38a1,1,0,0,0,0-2H26a1,1,0,0,0-1,1v4A1,1,0,0,0,26,39Z"/><path d="M36,41H28a1,1,0,0,0,0,2h8a1,1,0,0,0,0-2Z"/><path d="M36,45H28a1,1,0,0,0,0,2h8a1,1,0,0,0,0-2Z"/></g></svg>
